<?xml version="1.0" encoding="UTF-8" standalone="no"?>
<!-- Created with Inkscape (http://www.inkscape.org/) -->

<svg
   xmlns:dc="http://purl.org/dc/elements/1.1/"
   xmlns:cc="http://creativecommons.org/ns#"
   xmlns:rdf="http://www.w3.org/1999/02/22-rdf-syntax-ns#"
   xmlns:svg="http://www.w3.org/2000/svg"
   xmlns="http://www.w3.org/2000/svg"
   xmlns:xlink="http://www.w3.org/1999/xlink"
   xmlns:sodipodi="http://sodipodi.sourceforge.net/DTD/sodipodi-0.dtd"
   xmlns:inkscape="http://www.inkscape.org/namespaces/inkscape"
   width="281.70132"
   height="227.35783"
   viewBox="0 0 67.080128 54.139584"
   version="1.1"
   id="svg8"
   inkscape:version="0.92.4 (5da689c313, 2019-01-14)"
   sodipodi:docname="logo2.svg">
  <defs
     id="defs2">
    <linearGradient
       inkscape:collect="always"
       xlink:href="#linearGradient5055"
       id="linearGradient5087"
       x1="1469.3066"
       y1="549.17383"
       x2="1445.2852"
       y2="480.16797"
       gradientUnits="userSpaceOnUse"
       gradientTransform="matrix(0.07355767,0,0,0.07355767,171.1456,82.351151)" />
    <linearGradient
       inkscape:collect="always"
       id="linearGradient5055">
      <stop
         style="stop-color:#d400aa;stop-opacity:1;"
         offset="0"
         id="stop5051" />
      <stop
         style="stop-color:#ffcc00;stop-opacity:1"
         offset="1"
         id="stop5053" />
    </linearGradient>
    <linearGradient
       inkscape:collect="always"
       xlink:href="#linearGradient5093"
       id="linearGradient5095"
       x1="1487.0137"
       y1="623"
       x2="1204.5"
       y2="623"
       gradientUnits="userSpaceOnUse"
       gradientTransform="matrix(0.07355767,0,0,0.07355767,171.1456,82.351151)" />
    <linearGradient
       inkscape:collect="always"
       id="linearGradient5093">
      <stop
         style="stop-color:#0000ff;stop-opacity:1"
         offset="0"
         id="stop5089" />
      <stop
         style="stop-color:#008000;stop-opacity:1"
         offset="1"
         id="stop5091" />
    </linearGradient>
    <linearGradient
       inkscape:collect="always"
       xlink:href="#linearGradient5093"
       id="linearGradient5103"
       x1="1345.709"
       y1="784.14258"
       x2="1161.6914"
       y2="619.1582"
       gradientUnits="userSpaceOnUse"
       gradientTransform="matrix(0.07355767,0,0,0.07355767,171.1456,82.351151)" />
    <linearGradient
       inkscape:collect="always"
       xlink:href="#linearGradient5093"
       id="linearGradient5111"
       x1="1399.0312"
       y1="817.71484"
       x2="1020.6328"
       y2="546.75781"
       gradientUnits="userSpaceOnUse"
       gradientTransform="matrix(0.07355767,0,0,0.07355767,171.1456,82.351151)" />
    <linearGradient
       inkscape:collect="always"
       xlink:href="#linearGradient5055"
       id="linearGradient5079"
       gradientUnits="userSpaceOnUse"
       x1="1486.3613"
       y1="604.57812"
       x2="1445.2852"
       y2="480.16797"
       gradientTransform="matrix(0.07355767,0,0,0.07355767,171.1456,82.351151)" />
    <linearGradient
       inkscape:collect="always"
       xlink:href="#linearGradient5093"
       id="linearGradient5119"
       x1="1399.0312"
       y1="817.71484"
       x2="1085.543"
       y2="841.5918"
       gradientUnits="userSpaceOnUse"
       gradientTransform="matrix(0.07355767,0,0,0.07355767,171.1456,82.351151)" />
  </defs>
  <sodipodi:namedview
     id="base"
     pagecolor="#606060"
     bordercolor="#000000"
     borderopacity="1"
     inkscape:pageopacity="1"
     inkscape:pageshadow="2"
     inkscape:zoom="0.7"
     inkscape:cx="-177.49195"
     inkscape:cy="52.81528"
     inkscape:document-units="mm"
     inkscape:current-layer="layer5"
     showgrid="false"
     inkscape:pagecheckerboard="true"
     inkscape:showpageshadow="false"
     borderlayer="true"
     units="px"
     inkscape:snap-page="true"
     inkscape:window-width="3840"
     inkscape:window-height="2054"
     inkscape:window-x="0"
     inkscape:window-y="27"
     inkscape:window-maximized="1"
     scale-x="0.9"
     fit-margin-top="0"
     fit-margin-left="0"
     fit-margin-right="0"
     fit-margin-bottom="0" />
  <metadata
     id="metadata5">
    <rdf:RDF>
      <cc:Work
         rdf:about="">
        <dc:format>image/svg+xml</dc:format>
        <dc:type
           rdf:resource="http://purl.org/dc/dcmitype/StillImage" />
        <dc:title></dc:title>
      </cc:Work>
    </rdf:RDF>
  </metadata>
  <g
     inkscape:label="Background"
     inkscape:groupmode="layer"
     id="layer1"
     transform="translate(-226.50756,-109.29031)"
     style="display:inline;opacity:1"
     sodipodi:insensitive="true">
    <rect
       style="fill:#000000;fill-opacity:0;stroke:none;stroke-width:0.26458332;stroke-opacity:1"
       id="rect815"
       width="538.99402"
       height="306.16071"
       x="-19.654762"
       y="-19.744064" />
    <rect
       style="fill:#ffffff;fill-opacity:1;stroke:none;stroke-width:0.26458332;stroke-opacity:1"
       id="rect819"
       width="67.080132"
       height="54.139576"
       x="226.50755"
       y="109.29031" />
  </g>
  <g
     inkscape:groupmode="layer"
     id="layer5"
     inkscape:label="Layer"
     transform="translate(-226.50756,-98.040326)">
    <g
       id="g1688"
       transform="matrix(1.5422865,0,0,1.5422865,-147.52039,-77.990794)"
       style="stroke-width:0.64838791">
      <path
         inkscape:connector-curvature="0"
         id="path5029"
         d="m 270.13627,118.84898 a 2.3943943,2.3943943 0 0 0 -0.16939,0.006 2.3943943,2.3943943 0 0 0 -0.23749,0.0289 2.3943943,2.3943943 0 0 0 -0.2336,0.0524 2.3943943,2.3943943 0 0 0 -0.22714,0.0754 2.3943943,2.3943943 0 0 0 -0.21852,0.0977 2.3943943,2.3943943 0 0 0 -0.2076,0.11911 2.3943943,2.3943943 0 0 0 -0.19467,0.13921 2.3943943,2.3943943 0 0 0 -0.17973,0.15803 2.3943943,2.3943943 0 0 0 -0.16319,0.17513 2.3943943,2.3943943 0 0 0 -0.14482,0.19051 2.3943943,2.3943943 0 0 0 -0.12514,0.204 2.3943943,2.3943943 0 0 0 -0.10401,0.21551 2.3943943,2.3943943 0 0 0 -0.0822,0.22483 2.3943943,2.3943943 0 0 0 -0.0592,0.23188 2.3943943,2.3943943 0 0 0 -0.0357,0.23677 2.3943943,2.3943943 0 0 0 -0.012,0.23892 2.3943943,2.3943943 0 0 0 0.006,0.16938 2.3943943,2.3943943 0 0 0 0.0287,0.23763 2.3943943,2.3943943 0 0 0 0.0525,0.2336 2.3943943,2.3943943 0 0 0 0.0756,0.22714 2.3943943,2.3943943 0 0 0 0.0977,0.21837 2.3943943,2.3943943 0 0 0 0.1191,0.2076 2.3943943,2.3943943 0 0 0 0.13921,0.19467 2.3943943,2.3943943 0 0 0 0.15803,0.17987 2.3943943,2.3943943 0 0 0 0.17514,0.16306 2.3943943,2.3943943 0 0 0 0.19051,0.14497 2.3943943,2.3943943 0 0 0 0.204,0.12499 2.3943943,2.3943943 0 0 0 0.2155,0.10415 2.3943943,2.3943943 0 0 0 0.22483,0.082 2.3943943,2.3943943 0 0 0 0.23189,0.0592 2.3943943,2.3943943 0 0 0 0.23662,0.0358 2.3943943,2.3943943 0 0 0 0.23907,0.0121 2.3943943,2.3943943 0 0 0 0.16938,-0.006 2.3943943,2.3943943 0 0 0 0.23762,-0.0289 2.3943943,2.3943943 0 0 0 0.23346,-0.0524 2.3943943,2.3943943 0 0 0 0.22714,-0.0754 2.3943943,2.3943943 0 0 0 0.21851,-0.0978 2.3943943,2.3943943 0 0 0 0.20761,-0.11895 2.3943943,2.3943943 0 0 0 0.19466,-0.13922 2.3943943,2.3943943 0 0 0 0.17987,-0.15803 2.3943943,2.3943943 0 0 0 0.16306,-0.17513 2.3943943,2.3943943 0 0 0 0.14483,-0.1905 2.3943943,2.3943943 0 0 0 0.12513,-0.20401 2.3943943,2.3943943 0 0 0 0.10416,-0.2155 2.3943943,2.3943943 0 0 0 0.0821,-0.22484 2.3943943,2.3943943 0 0 0 0.0592,-0.23203 2.3943943,2.3943943 0 0 0 0.0357,-0.23661 2.3943943,2.3943943 0 0 0 0.012,-0.23907 2.3943943,2.3943943 0 0 0 -0.006,-0.16938 2.3943943,2.3943943 0 0 0 -0.0289,-0.23748 2.3943943,2.3943943 0 0 0 -0.0525,-0.23361 2.3943943,2.3943943 0 0 0 -0.0754,-0.22713 2.3943943,2.3943943 0 0 0 -0.0978,-0.21838 2.3943943,2.3943943 0 0 0 -0.1191,-0.2076 2.3943943,2.3943943 0 0 0 -0.13921,-0.19481 2.3943943,2.3943943 0 0 0 -0.15789,-0.17973 2.3943943,2.3943943 0 0 0 -0.17513,-0.16321 2.3943943,2.3943943 0 0 0 -0.1905,-0.14481 2.3943943,2.3943943 0 0 0 -0.20416,-0.12514 2.3943943,2.3943943 0 0 0 -0.2155,-0.10401 2.3943943,2.3943943 0 0 0 -0.22483,-0.082 2.3943943,2.3943943 0 0 0 -0.23188,-0.0593 2.3943943,2.3943943 0 0 0 -0.23663,-0.0358 2.3943943,2.3943943 0 0 0 -0.23906,-0.0119 z"
         style="opacity:0.506;fill:#ffffff;fill-opacity:1;stroke:none;stroke-width:0.30879477;stroke-miterlimit:4;stroke-dasharray:none;stroke-opacity:1" />
      <path
         inkscape:connector-curvature="0"
         id="path5017"
         d="m 274.05507,142.50036 a 19.155171,19.155171 0 0 1 -0.25084,0.14381 19.155171,19.155171 0 0 1 -1.74771,0.78212 19.155171,19.155171 0 0 1 -1.81696,0.60369 19.155171,19.155171 0 0 1 -1.86826,0.41937 19.155171,19.155171 0 0 1 -1.90086,0.23073 19.155171,19.155171 0 0 1 -1.35492,0.048 19.155171,19.155171 0 0 1 -1.91235,-0.0957 19.155171,19.155171 0 0 1 -1.89326,-0.28619 19.155171,19.155171 0 0 1 -1.85517,-0.47367 19.155171,19.155171 0 0 1 -1.79858,-0.65656 19.155171,19.155171 0 0 1 -1.72415,-0.83284 19.155171,19.155171 0 0 1 -1.54571,-0.94763 19.155171,19.155171 0 0 1 -0.45011,0.48315 19.155171,19.155171 0 0 1 -1.43854,1.2637 19.155171,19.155171 0 0 1 -1.50204,1.07434 19.155171,19.155171 0 0 0 1.19258,0.73113 19.155171,19.155171 0 0 0 1.72401,0.83284 19.155171,19.155171 0 0 0 1.79871,0.65656 19.155171,19.155171 0 0 0 1.85518,0.47367 19.155171,19.155171 0 0 0 1.89325,0.28618 19.155171,19.155171 0 0 0 1.91221,0.0957 19.155171,19.155171 0 0 0 1.35506,-0.048 19.155171,19.155171 0 0 0 1.90073,-0.23073 19.155171,19.155171 0 0 0 1.86825,-0.41937 19.155171,19.155171 0 0 0 1.8171,-0.60368 19.155171,19.155171 0 0 0 1.74757,-0.78213 19.155171,19.155171 0 0 0 1.66093,-0.95266 19.155171,19.155171 0 0 0 1.55751,-1.11385 19.155171,19.155171 0 0 0 0.77637,-0.68199 z"
         style="opacity:0.506;fill:url(#linearGradient5119);fill-opacity:1;stroke:none;stroke-width:0.30879477;stroke-miterlimit:4;stroke-dasharray:none;stroke-opacity:1" />
      <path
         inkscape:connector-curvature="0"
         id="path5007"
         d="m 280.52686,128.17759 a 7.1831868,7.1831897 0 0 1 0.0358,-0.71705 7.1831868,7.1831897 0 0 1 0.10731,-0.71 7.1831868,7.1831897 0 0 1 0.17772,-0.69564 7.1831868,7.1831897 0 0 1 0.2461,-0.67452 7.1831868,7.1831897 0 0 1 0.31234,-0.64664 7.1831868,7.1831897 0 0 1 0.3754,-0.61203 7.1831868,7.1831897 0 0 1 0.43445,-0.57165 7.1831868,7.1831897 0 0 1 0.35845,-0.38474 11.97198,11.971981 0 0 0 -0.18706,-0.41822 11.97198,11.971981 0 0 0 -0.5955,-1.03799 11.97198,11.971981 0 0 0 -0.69607,-0.97349 11.97198,11.971981 0 0 0 -0.78988,-0.89893 11.97198,11.971981 0 0 0 -0.87551,-0.81574 11.97198,11.971981 0 0 0 -0.95266,-0.72423 11.97198,11.971981 0 0 0 -1.02032,-0.62553 11.97198,11.971981 0 0 0 -0.12125,-0.0586 19.155171,19.155171 0 0 1 0.15401,0.21536 19.155171,19.155171 0 0 1 0.95265,1.66094 19.155171,19.155171 0 0 1 0.78214,1.74771 19.155171,19.155171 0 0 1 0.60382,1.81697 19.155171,19.155171 0 0 1 0.41937,1.86825 19.155171,19.155171 0 0 1 0.23072,1.90071 19.155171,19.155171 0 0 1 0.018,0.50816 19.155171,19.155171 0 0 1 0.0301,0.84692 z"
         style="opacity:1;fill:url(#linearGradient5079);fill-opacity:1;stroke:none;stroke-width:0.30879477;stroke-miterlimit:4;stroke-dasharray:none;stroke-opacity:1" />
      <path
         inkscape:connector-curvature="0"
         id="path5003"
         d="m 246.22096,122.56939 a 19.155171,19.155171 0 0 0 -0.16493,1.09115 19.155171,19.155171 0 0 0 -0.0957,1.91236 19.155171,19.155171 0 0 0 0.048,1.35507 19.155171,19.155171 0 0 0 0.23073,1.90072 19.155171,19.155171 0 0 0 0.41937,1.86825 19.155171,19.155171 0 0 0 0.60368,1.81696 19.155171,19.155171 0 0 0 0.78213,1.74771 19.155171,19.155171 0 0 0 0.9528,1.66094 19.155171,19.155171 0 0 0 1.11371,1.55735 19.155171,19.155171 0 0 0 1.2637,1.43854 19.155171,19.155171 0 0 0 1.4009,1.30522 19.155171,19.155171 0 0 0 1.52431,1.15868 19.155171,19.155171 0 0 0 0.0867,0.0532 19.155171,19.155171 0 0 0 1.54571,0.94763 19.155171,19.155171 0 0 0 1.72415,0.83284 19.155171,19.155171 0 0 0 1.79858,0.65656 19.155171,19.155171 0 0 0 1.85517,0.47367 19.155171,19.155171 0 0 0 1.89326,0.28619 19.155171,19.155171 0 0 0 1.91235,0.0957 19.155171,19.155171 0 0 0 1.35492,-0.048 19.155171,19.155171 0 0 0 1.90086,-0.23073 19.155171,19.155171 0 0 0 1.86826,-0.41936 19.155171,19.155171 0 0 0 1.81695,-0.60369 19.155171,19.155171 0 0 0 1.74772,-0.78213 19.155171,19.155171 0 0 0 0.25084,-0.14381 19.155171,19.155171 0 0 0 0.66202,-0.58171 19.155171,19.155171 0 0 0 1.30522,-1.4009 19.155171,19.155171 0 0 0 1.15882,-1.52431 19.155171,19.155171 0 0 0 0.15616,-0.25472 19.155171,19.155171 0 0 0 0.84463,-1.37763 19.155171,19.155171 0 0 0 0.83284,-1.72415 19.155171,19.155171 0 0 0 0.65655,-1.79857 19.155171,19.155171 0 0 0 0.47368,-1.85518 19.155171,19.155171 0 0 0 0.28603,-1.89324 19.155171,19.155171 0 0 0 0.0359,-0.71719 11.97198,11.971981 0 0 1 -0.17886,1.18339 11.97198,11.971981 0 0 1 -0.29596,1.15939 11.97198,11.971981 0 0 1 -0.41044,1.1242 11.97198,11.971981 0 0 1 -0.52052,1.0775 11.97198,11.971981 0 0 1 -0.62538,1.02033 11.97198,11.971981 0 0 1 -0.72423,0.95266 11.97198,11.971981 0 0 1 -0.81574,0.87551 11.97198,11.971981 0 0 1 -0.89908,0.78988 11.97198,11.971981 0 0 1 -0.97348,0.69607 11.97198,11.971981 0 0 1 -1.038,0.5955 11.97198,11.971981 0 0 1 -1.0923,0.48875 11.97198,11.971981 0 0 1 -1.13569,0.37742 11.97198,11.971981 0 0 1 -1.16759,0.26205 11.97198,11.971981 0 0 1 -0.45686,0.0555 11.97198,11.971981 0 0 1 -0.73112,0.0888 11.97198,11.971981 0 0 1 -0.84691,0.03 11.97198,11.971981 0 0 1 -1.19518,-0.0599 11.97198,11.971981 0 0 1 -1.18324,-0.17872 11.97198,11.971981 0 0 1 -1.15954,-0.2961 11.97198,11.971981 0 0 1 -1.12405,-0.41031 11.97198,11.971981 0 0 1 -1.07765,-0.52065 11.97198,11.971981 0 0 1 -1.02019,-0.62539 11.97198,11.971981 0 0 1 -0.95266,-0.72422 11.97198,11.971981 0 0 1 -0.87564,-0.81575 11.97198,11.971981 0 0 1 -0.78975,-0.89907 11.97198,11.971981 0 0 1 -0.6202,-0.86732 11.97198,11.971981 0 0 1 -0.0761,-0.10617 11.97198,11.971981 0 0 1 -0.59536,-1.03799 11.97198,11.971981 0 0 1 -0.4889,-1.09231 11.97198,11.971981 0 0 1 -0.37727,-1.13569 11.97198,11.971981 0 0 1 -0.26219,-1.16758 11.97198,11.971981 0 0 1 -0.1441,-1.18799 11.97198,11.971981 0 0 1 -0.0301,-0.84691 11.97198,11.971981 0 0 1 0.014,-0.2826 19.155171,19.155171 0 0 1 -0.65669,-0.0993 19.155171,19.155171 0 0 1 -1.85518,-0.47367 19.155171,19.155171 0 0 1 -1.79858,-0.65656 19.155171,19.155171 0 0 1 -1.72415,-0.83284 19.155171,19.155171 0 0 1 -1.63235,-1.00079 19.155171,19.155171 0 0 1 -1.52431,-1.15868 19.155171,19.155171 0 0 1 -1.18468,-1.10379 z"
         style="opacity:0.506;fill:url(#linearGradient5111);fill-opacity:1;stroke:none;stroke-width:0.30879477;stroke-miterlimit:4;stroke-dasharray:none;stroke-opacity:1" />
      <path
         inkscape:connector-curvature="0"
         id="path4991"
         d="m 256.59691,127.89499 a 11.97198,11.971981 0 0 0 -0.014,0.2826 11.97198,11.971981 0 0 0 0.0301,0.84691 11.97198,11.971981 0 0 0 0.1441,1.18799 11.97198,11.971981 0 0 0 0.26219,1.16758 11.97198,11.971981 0 0 0 0.37727,1.13569 11.97198,11.971981 0 0 0 0.4889,1.09231 11.97198,11.971981 0 0 0 0.59535,1.03799 11.97198,11.971981 0 0 0 0.0761,0.10617 11.97198,11.971981 0 0 0 0.62021,0.86732 11.97198,11.971981 0 0 0 0.78974,0.89907 11.97198,11.971981 0 0 0 0.87565,0.81575 11.97198,11.971981 0 0 0 0.95266,0.72422 11.97198,11.971981 0 0 0 1.02018,0.62539 11.97198,11.971981 0 0 0 1.07766,0.52065 11.97198,11.971981 0 0 0 1.12405,0.41031 11.97198,11.971981 0 0 0 1.15954,0.2961 11.97198,11.971981 0 0 0 1.18324,0.17872 11.97198,11.971981 0 0 0 1.19517,0.0599 11.97198,11.971981 0 0 0 0.84691,-0.03 11.97198,11.971981 0 0 0 0.73114,-0.0888 11.97198,11.971981 0 0 1 -0.79348,-0.11982 11.97198,11.971981 0 0 1 -1.15954,-0.2961 11.97198,11.971981 0 0 1 -1.1242,-0.41031 11.97198,11.971981 0 0 1 -1.0775,-0.52065 11.97198,11.971981 0 0 1 -1.02018,-0.62539 11.97198,11.971981 0 0 1 -0.95266,-0.72423 11.97198,11.971981 0 0 1 -0.87565,-0.81574 11.97198,11.971981 0 0 1 -0.78975,-0.89907 11.97198,11.971981 0 0 1 -0.6962,-0.97349 11.97198,11.971981 0 0 1 -0.59536,-1.038 11.97198,11.971981 0 0 1 -0.48891,-1.0923 11.97198,11.971981 0 0 1 -0.37727,-1.13569 11.97198,11.971981 0 0 1 -0.26219,-1.16758 11.97198,11.971981 0 0 1 -0.1441,-1.18799 11.97198,11.971981 0 0 1 -0.0301,-0.84692 19.155171,19.155171 0 0 1 -1.91235,-0.0957 19.155171,19.155171 0 0 1 -1.23655,-0.18691 z"
         style="opacity:0.506;fill:url(#linearGradient5103);fill-opacity:1;stroke:none;stroke-width:0.30879477;stroke-miterlimit:4;stroke-dasharray:none;stroke-opacity:1" />
      <path
         inkscape:connector-curvature="0"
         id="path4987"
         d="m 270.13957,116.32431 a 11.97198,11.971981 0 0 0 -0.45672,0.0555 11.97198,11.971981 0 0 0 -1.16758,0.26219 11.97198,11.971981 0 0 0 -1.1357,0.37727 11.97198,11.971981 0 0 0 -1.0923,0.4889 11.97198,11.971981 0 0 0 -1.03799,0.59536 11.97198,11.971981 0 0 0 -0.97335,0.69607 11.97198,11.971981 0 0 0 -0.89907,0.78988 11.97198,11.971981 0 0 0 -0.81575,0.87565 11.97198,11.971981 0 0 0 -0.72423,0.95266 11.97198,11.971981 0 0 0 -0.62553,1.02018 11.97198,11.971981 0 0 0 -0.52049,1.07751 11.97198,11.971981 0 0 0 -0.41032,1.1242 11.97198,11.971981 0 0 0 -0.2961,1.15954 11.97198,11.971981 0 0 0 -0.17887,1.18324 11.97198,11.971981 0 0 0 -0.0598,1.19517 11.97198,11.971981 0 0 0 0.0301,0.84692 11.97198,11.971981 0 0 0 0.1441,1.18798 11.97198,11.971981 0 0 0 0.26219,1.16759 11.97198,11.971981 0 0 0 0.37727,1.13569 11.97198,11.971981 0 0 0 0.4889,1.0923 11.97198,11.971981 0 0 0 0.59536,1.038 11.97198,11.971981 0 0 0 0.69621,0.97349 11.97198,11.971981 0 0 0 0.78974,0.89907 11.97198,11.971981 0 0 0 0.87565,0.81574 11.97198,11.971981 0 0 0 0.95266,0.72423 11.97198,11.971981 0 0 0 1.02019,0.62538 11.97198,11.971981 0 0 0 1.0775,0.52065 11.97198,11.971981 0 0 0 1.1242,0.41031 11.97198,11.971981 0 0 0 1.15953,0.2961 11.97198,11.971981 0 0 0 0.79348,0.11982 11.97198,11.971981 0 0 0 0.45685,-0.0555 11.97198,11.971981 0 0 0 1.1676,-0.26205 11.97198,11.971981 0 0 0 1.13568,-0.37741 11.97198,11.971981 0 0 0 1.09231,-0.48876 11.97198,11.971981 0 0 0 1.03799,-0.5955 11.97198,11.971981 0 0 0 0.97349,-0.69607 11.97198,11.971981 0 0 0 0.89907,-0.78988 11.97198,11.971981 0 0 0 0.81574,-0.87551 11.97198,11.971981 0 0 0 0.72423,-0.95266 11.97198,11.971981 0 0 0 0.62539,-1.02032 11.97198,11.971981 0 0 0 0.52051,-1.07751 11.97198,11.971981 0 0 0 0.41045,-1.12419 11.97198,11.971981 0 0 0 0.29596,-1.1594 11.97198,11.971981 0 0 0 0.17886,-1.18339 19.155171,19.155171 0 0 0 0.0599,-1.19516 19.155171,19.155171 0 0 0 -0.0301,-0.84692 11.97198,11.971981 0 0 0 -0.14424,-1.18799 11.97198,11.971981 0 0 0 -0.26206,-1.16758 11.97198,11.971981 0 0 0 -0.3774,-1.13569 11.97198,11.971981 0 0 0 -0.48876,-1.09231 11.97198,11.971981 0 0 0 -0.59551,-1.03799 11.97198,11.971981 0 0 0 -0.69607,-0.97349 11.97198,11.971981 0 0 0 -0.78987,-0.89893 11.97198,11.971981 0 0 0 -0.87551,-0.81574 11.97198,11.971981 0 0 0 -0.14396,-0.10948 11.97198,11.971981 0 0 0 -0.80871,-0.61475 11.97198,11.971981 0 0 0 -1.02031,-0.62553 11.97198,11.971981 0 0 0 -1.07751,-0.52051 11.97198,11.971981 0 0 0 -1.1242,-0.41031 11.97198,11.971981 0 0 0 -1.1594,-0.2961 11.97198,11.971981 0 0 0 -0.79375,-0.11996 z m -0.004,2.52467 a 2.3943943,2.3943943 0 0 1 0.23907,0.0119 2.3943943,2.3943943 0 0 1 0.23661,0.0358 2.3943943,2.3943943 0 0 1 0.23188,0.0593 2.3943943,2.3943943 0 0 1 0.22484,0.082 2.3943943,2.3943943 0 0 1 0.21549,0.10402 2.3943943,2.3943943 0 0 1 0.20416,0.12513 2.3943943,2.3943943 0 0 1 0.1905,0.14482 2.3943943,2.3943943 0 0 1 0.17514,0.1632 2.3943943,2.3943943 0 0 1 0.15788,0.17973 2.3943943,2.3943943 0 0 1 0.13922,0.19481 2.3943943,2.3943943 0 0 1 0.1191,0.2076 2.3943943,2.3943943 0 0 1 0.0978,0.21838 2.3943943,2.3943943 0 0 1 0.0754,0.22714 2.3943943,2.3943943 0 0 1 0.0525,0.2336 2.3943943,2.3943943 0 0 1 0.0289,0.23748 2.3943943,2.3943943 0 0 1 0.006,0.16938 2.3943943,2.3943943 0 0 1 -0.012,0.23907 2.3943943,2.3943943 0 0 1 -0.0357,0.23662 2.3943943,2.3943943 0 0 1 -0.0592,0.23202 2.3943943,2.3943943 0 0 1 -0.0821,0.22484 2.3943943,2.3943943 0 0 1 -0.10416,0.2155 2.3943943,2.3943943 0 0 1 -0.12513,0.20401 2.3943943,2.3943943 0 0 1 -0.14482,0.1905 2.3943943,2.3943943 0 0 1 -0.16306,0.17513 2.3943943,2.3943943 0 0 1 -0.17988,0.15804 2.3943943,2.3943943 0 0 1 -0.19466,0.13921 2.3943943,2.3943943 0 0 1 -0.2076,0.11895 2.3943943,2.3943943 0 0 1 -0.21851,0.0978 2.3943943,2.3943943 0 0 1 -0.22714,0.0754 2.3943943,2.3943943 0 0 1 -0.23346,0.0524 2.3943943,2.3943943 0 0 1 -0.23763,0.0289 2.3943943,2.3943943 0 0 1 -0.16938,0.006 2.3943943,2.3943943 0 0 1 -0.23907,-0.0121 2.3943943,2.3943943 0 0 1 -0.23662,-0.0358 2.3943943,2.3943943 0 0 1 -0.23188,-0.0592 2.3943943,2.3943943 0 0 1 -0.22483,-0.082 2.3943943,2.3943943 0 0 1 -0.21551,-0.10415 2.3943943,2.3943943 0 0 1 -0.204,-0.12499 2.3943943,2.3943943 0 0 1 -0.19051,-0.14497 2.3943943,2.3943943 0 0 1 -0.17513,-0.16306 2.3943943,2.3943943 0 0 1 -0.15803,-0.17987 2.3943943,2.3943943 0 0 1 -0.13921,-0.19467 2.3943943,2.3943943 0 0 1 -0.11911,-0.2076 2.3943943,2.3943943 0 0 1 -0.0977,-0.21837 2.3943943,2.3943943 0 0 1 -0.0756,-0.22714 2.3943943,2.3943943 0 0 1 -0.0525,-0.2336 2.3943943,2.3943943 0 0 1 -0.0287,-0.23763 2.3943943,2.3943943 0 0 1 -0.006,-0.16938 2.3943943,2.3943943 0 0 1 0.0119,-0.23892 2.3943943,2.3943943 0 0 1 0.0357,-0.23677 2.3943943,2.3943943 0 0 1 0.0592,-0.23187 2.3943943,2.3943943 0 0 1 0.0822,-0.22484 2.3943943,2.3943943 0 0 1 0.10403,-0.2155 2.3943943,2.3943943 0 0 1 0.12512,-0.20401 2.3943943,2.3943943 0 0 1 0.14482,-0.19051 2.3943943,2.3943943 0 0 1 0.16321,-0.17513 2.3943943,2.3943943 0 0 1 0.17973,-0.15803 2.3943943,2.3943943 0 0 1 0.19467,-0.13921 2.3943943,2.3943943 0 0 1 0.20759,-0.1191 2.3943943,2.3943943 0 0 1 0.21852,-0.0977 2.3943943,2.3943943 0 0 1 0.22713,-0.0754 2.3943943,2.3943943 0 0 1 0.23361,-0.0524 2.3943943,2.3943943 0 0 1 0.23748,-0.0289 2.3943943,2.3943943 0 0 1 0.16939,-0.006 z"
         style="opacity:0.506;fill:url(#linearGradient5095);fill-opacity:1;stroke:none;stroke-width:0.30879477;stroke-miterlimit:4;stroke-dasharray:none;stroke-opacity:1" />
      <path
         inkscape:connector-curvature="0"
         id="path4983"
         d="m 271.71775,116.20564 a 11.97198,11.971981 0 0 0 -0.84691,0.0299 11.97198,11.971981 0 0 0 -0.73127,0.0888 11.97198,11.971981 0 0 1 0.79375,0.11996 11.97198,11.971981 0 0 1 1.1594,0.2961 11.97198,11.971981 0 0 1 1.1242,0.41031 11.97198,11.971981 0 0 1 1.07751,0.52051 11.97198,11.971981 0 0 1 1.02031,0.62554 11.97198,11.971981 0 0 1 0.80871,0.61475 11.97198,11.971981 0 0 1 0.14396,0.10947 11.97198,11.971981 0 0 1 0.87551,0.81575 11.97198,11.971981 0 0 1 0.78988,0.89892 11.97198,11.971981 0 0 1 0.69606,0.97349 11.97198,11.971981 0 0 1 0.59551,1.038 11.97198,11.971981 0 0 1 0.48876,1.09229 11.97198,11.971981 0 0 1 0.37741,1.13569 11.97198,11.971981 0 0 1 0.26205,1.16759 11.97198,11.971981 0 0 1 0.14424,1.18798 19.155171,19.155171 0 0 0 -0.0179,-0.50815 19.155171,19.155171 0 0 0 -0.23074,-1.90072 19.155171,19.155171 0 0 0 -0.41936,-1.86825 19.155171,19.155171 0 0 0 -0.60383,-1.81696 19.155171,19.155171 0 0 0 -0.78213,-1.74771 19.155171,19.155171 0 0 0 -0.95265,-1.66094 19.155171,19.155171 0 0 0 -0.15402,-0.21536 11.97198,11.971981 0 0 0 -0.40011,-0.19323 11.97198,11.971981 0 0 0 -0.55614,-0.26866 11.97198,11.971981 0 0 0 -1.1242,-0.41031 11.97198,11.971981 0 0 0 -1.15939,-0.2961 11.97198,11.971981 0 0 0 -1.1834,-0.17886 11.97198,11.971981 0 0 0 -1.19516,-0.0598 z"
         style="opacity:0.506;fill:url(#linearGradient5087);fill-opacity:1;stroke:none;stroke-width:0.30879477;stroke-miterlimit:4;stroke-dasharray:none;stroke-opacity:1" />
    </g>
  </g>
  <style
     id="style892"
     type="text/css">
	.st0{fill:#97D3FF;}
	.st1{fill:#754C24;}
	.st2{fill:#4D4D4D;}
	.st3{fill:#333333;}
	.st4{fill:#F69B76;}
	.st5{fill:#F8C09D;}
	.st6{fill:#F6AE8D;}
	.st7{fill:#EF937E;}
	.st8{fill:#AF4135;}
	.st9{fill:#FFFFFF;}
	.st10{fill:none;stroke:#333333;stroke-width:4;stroke-linecap:round;stroke-miterlimit:10;}
</style>
</svg>
